Coordinates
version=1
nRows=10
nColumns=40
inDegrees=yes

Units are S.I. units (second, meters, Newtons, ...)
Angles are in degrees.

endheader
time	pelvis_tilt	pelvis_list	pelvis_rotation	pelvis_tx	pelvis_ty	pelvis_tz	hip_flexion_r	hip_adduction_r	hip_rotation_r	knee_angle_r	knee_angle_r_beta	ankle_angle_r	subtalar_angle_r	mtp_angle_r	hip_flexion_l	hip_adduction_l	hip_rotation_l	knee_angle_l	knee_angle_l_beta	ankle_angle_l	subtalar_angle_l	mtp_angle_l	lumbar_extension	lumbar_bending	lumbar_rotation	arm_flex_r	arm_add_r	arm_rot_r	elbow_flex_r	pro_sup_r	wrist_flex_r	wrist_dev_r	arm_flex_l	arm_add_l	arm_rot_l	elbow_flex_l	pro_sup_l	wrist_flex_l	wrist_dev_l
     29.41750000	     -5.27756989	     -4.38132879	    -11.37785086	      1.00463780	      0.92526743	      0.52558715	     20.17469361	      4.16192346	     -9.10954006	     15.11144200	     15.11144200	      1.25103238	      2.17692985	     -8.45727021	     -2.17975496	     -6.59875743	    -15.69762895	     20.04357215	     20.04357215	     19.00073792	    -11.85110712	      1.79092664	     -9.28359991	      9.30930667	     -0.09040426	     -5.28078842	    -13.50245997	    -18.16745420	     36.13592882	     46.18868539	      0.00000000	      0.00000000	     30.20527119	    -17.64849909	    -12.22407498	     71.42613772	     48.10467251	      0.00000000	      0.00000000
     29.43657143	     -5.07657029	     -4.55887141	    -10.98933941	      1.00760289	      0.92634348	      0.53036517	     19.42184850	      4.46195009	     -9.23261221	     15.37562311	     15.37562311	      1.83002538	      1.87551814	     -8.30372253	     -1.67935174	     -7.49931824	    -15.40421201	     22.55102319	     22.55102319	     18.30933346	    -12.39517163	      1.07829502	     -9.22762614	      9.19320493	     -0.19289670	     -4.46964967	    -13.85523663	    -18.28565170	     36.73768669	     46.17669616	      0.00000000	      0.00000000	     28.84553581	    -17.01214516	    -12.15652234	     70.30536443	     48.06780021	      0.00000000	      0.00000000
     29.45564286	     -4.93848214	     -4.72475020	    -10.58577946	      1.01037489	      0.92714540	      0.53509926	     18.86035105	      4.78173386	     -9.18007869	     15.88452524	     15.88452524	      3.08036209	      1.41233396	     -6.27973094	     -0.99980363	     -8.50544415	    -15.23735006	     25.09622528	     25.09622528	     15.86675657	    -13.38014981	     -3.67515276	     -9.01554063	      9.12263049	      0.04788417	     -4.24132385	    -14.23764995	    -18.12413166	     38.35450163	     46.09253925	      0.00000000	      0.00000000	     27.95101828	    -15.78732240	    -12.62442341	     67.68100152	     48.01829595	      0.00000000	      0.00000000
     29.47471429	     -4.61154802	     -4.83419881	    -10.13910949	      1.01311578	      0.92804839	      0.53968021	     18.04008418	      4.96393223	     -9.42398639	     16.22163751	     16.22163751	      3.67736403	      1.17313247	     -6.38792763	     -0.06988571	     -9.43054433	    -14.60201409	     28.50107233	     28.50107233	     14.67892630	    -14.26248994	     -4.45192491	     -9.10918702	      8.92130616	     -0.00923850	     -3.26338049	    -14.64465151	    -18.13299600	     38.89056608	     46.07822713	      0.00000000	      0.00000000	     26.32921721	    -15.22915240	    -12.36549875	     66.52586979	     47.96484548	      0.00000000	      0.00000000
     29.49378571	     -4.50244389	     -4.86339216	     -9.61777851	      1.01543505	      0.92841890	      0.54401339	     17.54179574	      5.10120698	     -9.58855034	     16.63001121	     16.63001121	      4.33316837	      0.65801844	     -6.23519410	      1.47592481	    -10.37189000	    -13.75680457	     32.38426805	     32.38426805	     12.94098771	    -15.32837637	     -5.95403861	     -8.83530086	      8.70871098	     -0.28500441	     -2.24766993	    -14.96802668	    -17.92549674	     39.57863399	     46.04510190	      0.00000000	      0.00000000	     24.56183002	    -14.71339991	    -12.16015200	     64.54727417	     47.89848056	      0.00000000	      0.00000000
     29.51285714	     -4.11668301	     -5.03641354	     -9.07662241	      1.01759151	      0.92893706	      0.54822464	     16.72127429	      5.33881006	     -9.85435751	     17.02031923	     17.02031923	      5.03726342	      0.28023172	     -6.19978930	      2.94111033	    -11.39925999	    -12.71505751	     36.56673863	     36.56673863	     11.08297480	    -16.40522832	     -6.84610216	     -9.04640794	      8.58913914	     -0.23633306	     -1.14339749	    -15.38276930	    -17.74595915	     40.15029825	     46.02005212	      0.00000000	      0.00000000	     22.95910359	    -14.02398204	    -11.90269453	     62.88781701	     47.83682980	      0.00000000	      0.00000000
     29.53192857	     -3.90210475	     -5.16314515	     -8.46760206	      1.01930112	      0.92896862	      0.55220265	     16.15804836	      5.55102540	    -10.07437623	     17.46341359	     17.46341359	      5.77782733	     -0.22521876	     -6.09092752	      4.90297745	    -12.35982148	    -11.38173418	     41.01244624	     41.01244624	      9.10639203	    -17.42319464	     -7.41514549	     -9.01142754	      8.44139245	     -0.35944203	      0.04614088	    -15.73798265	    -17.45889219	     40.78896323	     45.98711962	      0.00000000	      0.00000000	     21.23463227	    -13.41888111	    -11.58530456	     60.68836362	     47.76136444	      0.00000000	      0.00000000
     29.55100000	     -3.65971640	     -5.29971422	     -7.83536589	      1.02065622	      0.92883000	      0.55592718	     15.63615059	      5.76914427	    -10.30990580	     17.98506096	     17.98506096	      6.53785572	     -0.83797179	     -5.90043929	      7.02928380	    -13.23170881	     -9.89924598	     45.51516393	     45.51516393	      7.30361271	    -18.15372644	     -7.09216626	     -9.00885813	      8.31192043	     -0.49779841	      1.37571892	    -16.07645765	    -17.04474928	     41.44488162	     45.94791182	      0.00000000	      0.00000000	     19.60028475	    -12.86049534	    -11.16695793	     58.06881863	     47.67226712	      0.00000000	      0.00000000
     29.57007143	     -3.33736358	     -5.31124242	     -7.19013469	      1.02158238	      0.92867637	      0.55926495	     15.22111520	      5.84052408	    -10.35017531	     18.80737167	     18.80737167	      7.65355765	     -1.70095676	     -4.85162258	      9.35755909	    -13.65533631	     -8.02122806	     50.15557042	     50.15557042	      7.09629568	    -18.44526148	     -2.31592798	     -9.05016459	      8.10940778	     -0.52419991	      2.81957276	    -16.63067572	    -15.49429805	     42.00094493	     45.85380475	      0.00000000	      0.00000000	     18.95266974	    -12.31526128	    -10.15501902	     52.73016738	     47.49509131	      0.00000000	      0.00000000
     29.58914286	     -3.06870354	     -5.43393368	     -6.49167772	      1.02219199	      0.92833062	      0.56224113	     14.73840945	      5.98410061	    -10.76012935	     19.36016474	     19.36016474	      8.65613506	     -1.96173767	     -4.11888686	     11.88974419	    -13.99476978	     -5.96332660	     54.62483444	     54.62483444	      7.70329232	    -18.58045522	      4.36092646	     -9.15060265	      8.00311457	     -0.16481243	      3.95286932	    -17.25204414	    -14.54682764	     42.68185711	     45.78728212	      0.00000000	      0.00000000	     17.90469581	    -11.56274892	     -8.94374311	     49.19205106	     47.31275247	      0.00000000	      0.00000000
